<svg version="1.1" viewBox="0.0 0.0 688.0 242.0" fill="none" stroke="none" stroke-linecap="square" stroke-miterlimit="10" xmlns:xlink="http://www.w3.org/1999/xlink" xmlns="http://www.w3.org/2000/svg"><clipPath id="p.0"><path d="m0 0l688.0 0l0 242.0l-688.0 0l0 -242.0z" clip-rule="nonzero"/></clipPath><g clip-path="url(#p.0)"><path fill="#000000" fill-opacity="0.0" d="m0 0l688.0 0l0 242.0l-688.0 0z" fill-rule="evenodd"/><path fill="#247ba0" d="m74.98452 237.50517l402.94485 -0.09291077l210.05157 -121.2914l-682.9921 0.15748596z" fill-rule="evenodd"/><path fill="#ffffff" d="m532.0 131.8688l0 0c0 -0.94514465 0.7661743 -1.711319 1.7113037 -1.711319l6.845093 0l0 0c0.45385742 0 0.88916016 0.18029785 1.210083 0.50123596c0.32092285 0.32092285 0.5012207 0.7562103 0.5012207 1.210083l0 15.002548c0 0.94514465 -0.7661743 1.711319 -1.7113037 1.711319l-6.845093 0c-0.9451294 0 -1.7113037 -0.7661743 -1.7113037 -1.711319z" fill-rule="evenodd"/><path stroke="#ffffff" stroke-width="1.0" stroke-linejoin="round" stroke-linecap="butt" d="m532.0 131.8688l0 0c0 -0.94514465 0.7661743 -1.711319 1.7113037 -1.711319l6.845093 0l0 0c0.45385742 0 0.88916016 0.18029785 1.210083 0.50123596c0.32092285 0.32092285 0.5012207 0.7562103 0.5012207 1.210083l0 15.002548c0 0.94514465 -0.7661743 1.711319 -1.7113037 1.711319l-6.845093 0c-0.9451294 0 -1.7113037 -0.7661743 -1.7113037 -1.711319z" fill-rule="evenodd"/><path fill="#ffffff" d="m548.0 131.8688l0 0c0 -0.94514465 0.7661743 -1.711319 1.7113037 -1.711319l6.845093 0l0 0c0.45385742 0 0.88916016 0.18029785 1.210083 0.50123596c0.32092285 0.32092285 0.5012207 0.7562103 0.5012207 1.210083l0 15.002548c0 0.94514465 -0.7661743 1.711319 -1.7113037 1.711319l-6.845093 0c-0.9451294 0 -1.7113037 -0.7661743 -1.7113037 -1.711319z" fill-rule="evenodd"/><path stroke="#ffffff" stroke-width="1.0" stroke-linejoin="round" stroke-linecap="butt" d="m548.0 131.8688l0 0c0 -0.94514465 0.7661743 -1.711319 1.7113037 -1.711319l6.845093 0l0 0c0.45385742 0 0.88916016 0.18029785 1.210083 0.50123596c0.32092285 0.32092285 0.5012207 0.7562103 0.5012207 1.210083l0 15.002548c0 0.94514465 -0.7661743 1.711319 -1.7113037 1.711319l-6.845093 0c-0.9451294 0 -1.7113037 -0.7661743 -1.7113037 -1.711319z" fill-rule="evenodd"/><path fill="#ffffff" d="m580.0 131.8688l0 0c0 -0.94514465 0.7661743 -1.711319 1.7113037 -1.711319l6.845093 0l0 0c0.45385742 0 0.88916016 0.18029785 1.210083 0.50123596c0.32092285 0.32092285 0.5012207 0.7562103 0.5012207 1.210083l0 15.002548c0 0.94514465 -0.7661743 1.711319 -1.7113037 1.711319l-6.845093 0c-0.9451294 0 -1.7113037 -0.7661743 -1.7113037 -1.711319z" fill-rule="evenodd"/><path stroke="#ffffff" stroke-width="1.0" stroke-linejoin="round" stroke-linecap="butt" d="m580.0 131.8688l0 0c0 -0.94514465 0.7661743 -1.711319 1.7113037 -1.711319l6.845093 0l0 0c0.45385742 0 0.88916016 0.18029785 1.210083 0.50123596c0.32092285 0.32092285 0.5012207 0.7562103 0.5012207 1.210083l0 15.002548c0 0.94514465 -0.7661743 1.711319 -1.7113037 1.711319l-6.845093 0c-0.9451294 0 -1.7113037 -0.7661743 -1.7113037 -1.711319z" fill-rule="evenodd"/><path fill="#247ba0" d="m686.9987 116.57826c11.3880005 -1.7055969 -108.246704 82.957565 -143.5617 101.59581c-35.31494 18.63823 -92.255005 27.16623 -68.328064 10.233582c23.92694 -16.932632 200.50177 -110.12379 211.88977 -111.82939z" fill-rule="evenodd"/><path fill="#ffffff" d="m596.0 131.8688l0 0c0 -0.94514465 0.7661743 -1.711319 1.7113037 -1.711319l6.845093 0l0 0c0.45385742 0 0.88916016 0.18029785 1.210083 0.50123596c0.32092285 0.32092285 0.5012207 0.7562103 0.5012207 1.210083l0 15.002548c0 0.94514465 -0.7661743 1.711319 -1.7113037 1.711319l-6.845093 0c-0.9451294 0 -1.7113037 -0.7661743 -1.7113037 -1.711319z" fill-rule="evenodd"/><path stroke="#ffffff" stroke-width="1.0" stroke-linejoin="round" stroke-linecap="butt" d="m596.0 131.8688l0 0c0 -0.94514465 0.7661743 -1.711319 1.7113037 -1.711319l6.845093 0l0 0c0.45385742 0 0.88916016 0.18029785 1.210083 0.50123596c0.32092285 0.32092285 0.5012207 0.7562103 0.5012207 1.210083l0 15.002548c0 0.94514465 -0.7661743 1.711319 -1.7113037 1.711319l-6.845093 0c-0.9451294 0 -1.7113037 -0.7661743 -1.7113037 -1.711319z" fill-rule="evenodd"/><path fill="#247ba0" d="m5.656986 115.75269c-5.0435777 -3.6465988 29.038551 74.37557 40.898552 93.62661c11.860004 19.251038 37.077892 37.48404 30.261463 21.879608c-6.8164215 -15.604431 -66.11644 -111.85962 -71.16002 -115.50622z" fill-rule="evenodd"/><path fill="#247ba0" d="m687.13385 93.89239l-56.0 0l-20.0 20.0l0 20.000008l0 0l56.0 0l20.0 -20.000008l0 -20.0z" fill-rule="evenodd"/><path fill="#000000" fill-opacity="0.0" d="m59.557533 -20.816273l222.07874 0l0 141.00787l-222.07874 0z" fill-rule="evenodd"/><path fill="#247ba0" d="m161.28734 97.46622q0 1.796875 -0.65625 3.34375q-0.640625 1.546875 -1.765625 2.671875q-1.125 1.125 -2.671875 1.78125q-1.546875 0.640625 -3.359375 0.640625l-60.453133 0q-2.3125 0 -5.0 -0.546875q-2.671875 -0.546875 -5.28125 -1.703125q-2.609375 -1.171875 -5.0 -3.0q-2.375 -1.84375 -4.21875 -4.453125q-1.828125 -2.609375 -2.921875 -6.046875q-1.09375 -3.453125 -1.09375 -7.78125l0 -45.374996q0 -2.3125 0.546875 -4.984375q0.546875 -2.6875 1.703125 -5.296875q1.15625 -2.609375 3.015625 -4.984375q1.875 -2.390625 4.484375 -4.21875q2.625 -1.84375 6.03125 -2.9375q3.421875 -1.09375 7.734375 -1.09375l68.12501 0l0 16.75l-68.12501 0q-3.28125 0 -5.03125 1.75q-1.734375 1.734375 -1.734375 5.15625l0 45.23437q0 3.234375 1.765625 5.0q1.78125 1.765625 5.0 1.765625l52.140633 0l0 -21.0l-44.593758 0l0 -16.890621l52.906258 0q1.8125 0 3.359375 0.6875q1.546875 0.671875 2.671875 1.828125q1.125 1.15625 1.765625 2.671875q0.65625 1.515625 0.65625 3.25l0 37.781246zm109.8242 1.28125q0 1.8125 -0.6875 3.359375q-0.671875 1.546875 -1.796875 2.671875q-1.125 1.125 -2.671875 1.765625q-1.546875 0.6562576 -3.28125 0.6562576q-1.546875 0 -3.125 -0.5937576q-1.578125 -0.578125 -2.8125 -1.859375l-61.23436 -63.937496l0 65.09375l-16.75 0l0 -85.265625q0 -2.578125 1.453125 -4.671875q1.453125 -2.109375 3.703125 -3.140625q2.390625 -0.953125 4.890625 -0.46875q2.515625 0.46875 4.328125 2.34375l61.234375 63.874996l0 -65.09375l16.749985 0l0 85.265625z" fill-rule="nonzero"/><path fill="#000000" fill-opacity="0.0" d="m-24.375328 99.89239l498.3622 0l0 248.09448l-498.3622 0z" fill-rule="evenodd"/><path fill="#ffffff" d="m91.14953 169.77238l57.062492 0l0 -36.625l16.25 0l0 89.625l-16.25 0l0 -36.625l-57.062492 0l0 36.625l-16.25 0l0 -89.625l16.25 0l0 36.625zm180.12497 44.8125q0 1.75 -0.625 3.25q-0.625 1.5 -1.75 2.59375q-1.125 1.09375 -2.625 1.71875q-1.5 0.625 -3.1875 0.625l-36.624985 0q-5.1875 0 -10.5 -1.125q-5.3125 -1.125 -10.28125 -3.46875q-4.96875 -2.34375 -9.34375 -5.96875q-4.375 -3.625 -7.65625 -8.59375q-3.28125 -4.96875 -5.15625 -11.375q-1.875 -6.40625 -1.875 -14.28125l0 -44.8125l16.25 0l0 44.8125q0 6.875 1.90625 11.625q1.90625 4.75 4.84375 7.9375q2.9375 3.1875 6.4375 5.0q3.5 1.8125 6.65625 2.6875q3.15625 0.875 5.5625 1.09375q2.40625 0.21875 3.15625 0.21875l28.562485 0l0 -73.375l16.25 0l0 81.4375zm108.3125 -11.5q0 3.0 -1.03125 6.4375q-1.03125 3.4375 -3.375 6.375q-2.34375 2.9375 -6.09375 4.90625q-3.75 1.96875 -9.1875 1.96875l-61.6875 0q-1.75 0 -3.25 -0.625q-1.5 -0.625 -2.59375 -1.71875q-1.09375 -1.09375 -1.71875 -2.59375q-0.625 -1.5 -0.625 -3.25l0 -73.25q0 -1.6875 0.625 -3.1875q0.625 -1.5 1.71875 -2.625q1.09375 -1.125 2.59375 -1.75q1.5 -0.625 3.25 -0.625l54.375 0q3.0 0 6.4375 1.0625q3.4375 1.0625 6.40625 3.40625q2.96875 2.34375 4.9375 6.09375q1.96875 3.75 1.96875 9.1875l0 3.0625q0 4.3125 -1.4375 9.28125q-1.4375 4.96875 -4.625 9.40625q2.75 1.6875 5.15625 4.0625q2.40625 2.375 4.21875 5.5q1.8125 3.125 2.875 7.0625q1.0625 3.9375 1.0625 8.6875l0 3.125zm-16.25 -3.125q0 -3.1875 -1.0 -5.71875q-1.0 -2.53125 -2.8125 -4.34375q-1.8125 -1.8125 -4.375 -2.78125q-2.5625 -0.96875 -5.75 -0.96875l-36.625 0l0 -16.375l29.3125 0q3.1875 0 5.75 -0.96875q2.5625 -0.96875 4.375 -2.78125q1.8125 -1.8125 2.78125 -4.34375q0.96875 -2.53125 0.96875 -5.71875l0 -3.0625q0 -3.5 -3.375 -3.5l-46.3125 0l0 57.125l53.625 0q0.4375 0 1.0625 -0.0625q0.625 -0.0625 1.125 -0.375q0.5 -0.3125 0.875 -1.0625q0.375 -0.75 0.375 -2.0625l0 -3.0z" fill-rule="nonzero"/><path fill="#247ba0" d="m286.75363 32.20912l0 13.416939l48.110382 14.557167l49.405823 -14.946571l0 -13.985888l-48.59958 14.701738z" fill-rule="evenodd"/><path fill="#247ba0" d="m286.7538 56.063644l0 13.4182205l48.110992 14.556938l49.405304 -14.948257l0 -13.985622l-48.024323 14.529552z" fill-rule="evenodd"/><path fill="#247ba0" d="m286.7538 79.91849l0 13.418213l48.110992 14.556946l49.405304 -14.948257l0 -13.985626l-48.024323 14.529556z" fill-rule="evenodd"/><path fill="#247ba0" d="m287.9583 23.17589l47.46994 -13.011213l47.46994 13.011213l-47.46994 13.011213z" fill-rule="evenodd"/><path fill="#1c617f" d="m335.0766 46.125057l0 13.631458l48.307617 -14.52219l0.290802 -13.927593z" fill-rule="evenodd"/><path fill="#1c617f" d="m335.0766 69.817116l0 13.631454l48.307617 -14.522186l0.290802 -13.927597z" fill-rule="evenodd"/><path fill="#1c617f" d="m335.0766 93.80052l0 13.631454l48.307617 -14.522186l0.290802 -13.927597z" fill-rule="evenodd"/><path fill="#000000" fill-opacity="0.0" d="m388.24857 -20.817791l108.409424 0l0 141.00787l-108.409424 0z" fill-rule="evenodd"/><path fill="#247ba0" d="m489.631 78.69907q0 4.96875 -1.265625 8.9375q-1.25 3.953125 -3.3125 6.984375q-2.0625 3.03125 -4.828125 5.15625q-2.765625 2.125 -5.734375 3.484375q-2.96875 1.34375 -6.03125 2.0q-3.0625 0.640625 -5.765625 0.640625l-64.640625 0l0 -16.765625l64.640625 0q4.828125 0 7.5 -2.828125q2.6875 -2.84375 2.6875 -7.609375q0 -2.3125 -0.71875 -4.25q-0.703125 -1.9375 -2.03125 -3.34375q-1.3125 -1.421875 -3.21875 -2.1875q-1.90625 -0.78125 -4.21875 -0.78125l-38.546875 0q-4.0625 0 -8.765625 -1.453125q-4.703125 -1.453125 -8.734375 -4.671871q-4.03125 -3.21875 -6.703125 -8.4375q-2.671875 -5.234375 -2.671875 -12.765625q0 -7.546875 2.671875 -12.734375q2.671875 -5.1875 6.703125 -8.4375q4.03125 -3.265625 8.734375 -4.703125q4.703125 -1.453125 8.765625 -1.453125l57.046875 0l0 16.75l-57.046875 0q-4.765625 0 -7.4375 2.90625q-2.671875 2.890625 -2.671875 7.671875q0 4.828125 2.671875 7.640625q2.671875 2.796875 7.4375 2.796875l38.546875 0l0.125 0q2.703125 0.0625 5.734375 0.75q3.03125 0.671875 6.03125 2.09375q3.0 1.40625 5.703125 3.578125q2.703125 2.15625 4.796875 5.1875q2.09375 3.0156212 3.3125 6.953121q1.234375 3.9375 1.234375 8.890625z" fill-rule="nonzero"/></g></svg>